# xmcd
#
# Track frame offsets: 
#        150
#        16497
#        30793
#        48893
#        60092
#        74271
#        89410
#        108126
#        132630
#        150645
#        164548
#        181486
#        198664
#        217958
#        235679
#        252988
#        273883
#        292534
#        315698
#        328066
#
# Disc length: 4692 seconds
#
# Revision: 1
# Processed by: cddbd v1.5.1PL2 Copyright (c) Steve Scherf et al.
# Submitted via: ExactAudioCopy v0.95b4
#
DISCID=0c125214
DTITLE=Nina Simone  - My Baby Just Cares For Me
DYEAR=2001
DGENRE=Jazz
TTITLE0=My Baby Just Cares For Me
TTITLE1=Don't Smoke In Bed
TTITLE2=Mood Indigo
TTITLE3=He Needs Me
TTITLE4=African Mailman
TTITLE5=Love Me Or Leave Me
TTITLE6=I Loves You Porgy
TTITLE7=Good Bait
TTITLE8=For All We Know
TTITLE9=Central Park Blues
TTITLE10=You'll Never Walk Alone
TTITLE11=Plain Gold Ring
TTITLE12=Little Girl Blue
TTITLE13=The House Of The Rising Sun (Live)
TTITLE14=Don't Let Me Be Misunderstood (Live)
TTITLE15=Ain't Got No - I Got Life (Live)
TTITLE16=No Opportunity Necessary, No Experience Needed (Live)
TTITLE17=Young, Gifted And Black (Live)
TTITLE18=Ain't No Use (Live)
TTITLE19=My Baby Just Cares For Me (Extended Version)
EXTD=
EXTT0=
EXTT1=
EXTT2=
EXTT3=
EXTT4=
EXTT5=
EXTT6=
EXTT7=
EXTT8=
EXTT9=
EXTT10=
EXTT11=
EXTT12=
EXTT13=
EXTT14=
EXTT15=
EXTT16=
EXTT17=
EXTT18=
EXTT19=
PLAYORDER=
